<svg width="73" height="53" viewBox="0 0 73 53" fill="none" xmlns="http://www.w3.org/2000/svg">
<path d="M20.381 46.3731L51.5793 1.70738C52.1377 0.946073 52.886 0.603564 53.8242 0.679857C54.7625 0.756151 55.4224 1.2131 55.8038 2.0507C56.1853 2.88831 56.122 3.71293 55.6139 4.52456L22.8938 51.1674C22.488 51.7258 21.9555 52.0683 21.2965 52.1949C20.6374 52.3216 20.0287 52.182 19.4703 51.7761L1.89279 38.6131C1.38471 38.2073 1.08035 37.6748 0.979706 37.0158C0.879064 36.3568 1.03165 35.748 1.43747 35.1896C1.84328 34.6312 2.37571 34.3139 3.03476 34.2376C3.6938 34.1613 4.30253 34.3261 4.86093 34.7319L20.381 46.3731ZM55.0027 23.0882C54.2917 23.0882 53.7082 22.8601 53.252 22.404C52.7959 21.9479 52.5678 21.3643 52.5678 20.6533C52.5678 19.9423 52.7959 19.3588 53.252 18.9026C53.7082 18.4465 54.2917 18.2184 55.0027 18.2184H69.6121C70.3231 18.2184 70.9067 18.4465 71.3628 18.9026C71.8189 19.3588 72.047 19.9423 72.047 20.6533C72.047 21.3643 71.8189 21.9479 71.3628 22.404C70.9067 22.8601 70.3231 23.0882 69.6121 23.0882H55.0027ZM45.2632 37.6976C44.5522 37.6976 43.9686 37.4695 43.5125 37.0134C43.0563 36.5572 42.8283 35.9737 42.8283 35.2627C42.8283 34.5517 43.0563 33.9681 43.5125 33.512C43.9686 33.0559 44.5522 32.8278 45.2632 32.8278H69.6121C70.3231 32.8278 70.9067 33.0559 71.3628 33.512C71.8189 33.9681 72.047 34.5517 72.047 35.2627C72.047 35.9737 71.8189 36.5572 71.3628 37.0134C70.9067 37.4695 70.3231 37.6976 69.6121 37.6976H45.2632ZM35.5236 52.3069C34.8126 52.3069 34.229 52.0789 33.7729 51.6227C33.3167 51.1666 33.0887 50.583 33.0887 49.8721C33.0887 49.1611 33.3167 48.5775 33.7729 48.1214C34.229 47.6652 34.8126 47.4372 35.5236 47.4372H69.6121C70.3231 47.4372 70.9067 47.6652 71.3628 48.1214C71.8189 48.5775 72.047 49.1611 72.047 49.8721C72.047 50.583 71.8189 51.1666 71.3628 51.6227C70.9067 52.0789 70.3231 52.3069 69.6121 52.3069H35.5236Z" fill="url(#paint0_linear_2904:9905)"/>
<defs>
<linearGradient id="paint0_linear_2904:9905" x1="7.12676" y1="52.3214" x2="66.9001" y2="53.3667" gradientUnits="userSpaceOnUse">
<stop stop-color="#E8AD00"/>
<stop offset="1" stop-color="#F47920"/>
</linearGradient>
</defs>
</svg>
