<svg width="14" height="13" viewBox="0 0 14 13" fill="none" xmlns="http://www.w3.org/2000/svg">
<path d="M10.5886 2.38803L3.87891 5.47217" stroke="#F47920" stroke-linecap="round"/>
<path d="M10.5886 10.6116L3.87891 7.52743" stroke="#F47920" stroke-linecap="round"/>
<path fill-rule="evenodd" clip-rule="evenodd" d="M1.96274 7.93963C2.75764 7.93963 3.40204 7.29524 3.40204 6.50033C3.40204 5.70543 2.75764 5.06104 1.96274 5.06104C1.16783 5.06104 0.523438 5.70543 0.523438 6.50033C0.523438 7.29524 1.16783 7.93963 1.96274 7.93963Z" fill="#F47920" stroke="#F47920"/>
<path fill-rule="evenodd" clip-rule="evenodd" d="M12.037 3.62152C12.8319 3.62152 13.4763 2.97712 13.4763 2.18222C13.4763 1.38732 12.8319 0.74292 12.037 0.74292C11.2421 0.74292 10.5977 1.38732 10.5977 2.18222C10.5977 2.97712 11.2421 3.62152 12.037 3.62152Z" fill="#F47920" stroke="#F47920"/>
<path fill-rule="evenodd" clip-rule="evenodd" d="M12.037 12.2573C12.8319 12.2573 13.4763 11.6129 13.4763 10.818C13.4763 10.0231 12.8319 9.37866 12.037 9.37866C11.2421 9.37866 10.5977 10.0231 10.5977 10.818C10.5977 11.6129 11.2421 12.2573 12.037 12.2573Z" fill="#F47920" stroke="#F47920"/>
</svg>
