<svg width="14" height="15" viewBox="0 0 14 15" fill="none" xmlns="http://www.w3.org/2000/svg">
<path d="M7.5 1C7.5 0.723858 7.27614 0.5 7 0.5C6.72386 0.5 6.5 0.723858 6.5 1L6.5 9.84326L1.65336 4.99662C1.4581 4.80136 1.14151 4.80136 0.946251 4.99662C0.750989 5.19188 0.75099 5.50846 0.946252 5.70373L6.60311 11.3606C6.71101 11.4685 6.85596 11.5168 6.99702 11.5054C7.13778 11.5165 7.28232 11.4682 7.38998 11.3605L13.0468 5.70365C13.2421 5.50839 13.2421 5.19181 13.0468 4.99654C12.8516 4.80128 12.535 4.80128 12.3397 4.99654L7.5 9.83628L7.5 1Z" fill="white"/>
<path d="M1 13.5C0.723858 13.5 0.5 13.7239 0.5 14C0.5 14.2761 0.723858 14.5 1 14.5H13C13.2761 14.5 13.5 14.2761 13.5 14C13.5 13.7239 13.2761 13.5 13 13.5H1Z" fill="white"/>
</svg>
