<svg width="31" height="22" viewBox="0 0 31 22" fill="none" xmlns="http://www.w3.org/2000/svg">
<path d="M29.4867 12.45L26.0876 5.48781V4.34929C26.0876 1.9494 24.1382 0 21.7383 0H8.96888C6.56899 0 4.61959 1.9494 4.61959 4.34929V5.48781L1.22042 12.45C0.499636 12.7448 0 13.441 0 14.2683V19.2401C0 20.3213 0.876411 21.1977 1.95759 21.1977H28.7578C29.8389 21.1977 30.7153 20.3213 30.7153 19.2401V14.2683C30.7153 13.441 30.2075 12.7366 29.4867 12.45ZM28.7578 20.1329H1.95759C1.46615 20.1329 1.0648 19.7315 1.0648 19.2401V17.1924H29.6505V19.2401C29.6505 19.7315 29.2492 20.1329 28.7578 20.1329ZM8.96888 1.0648H21.7383C23.5484 1.0648 25.0228 2.53914 25.0228 4.34929V5.07827H24.433C24.0808 4.58682 23.4993 4.28377 22.8768 4.28377H17.9869C17.3726 4.28377 16.7911 4.58682 16.4307 5.07827H14.2601C13.9079 4.58682 13.3264 4.28377 12.7039 4.28377H7.81398C7.19968 4.28377 6.61813 4.58682 6.25774 5.07827H5.668V4.34929C5.69258 2.53914 7.15872 1.0648 8.96888 1.0648ZM1.0648 14.2601C1.0648 13.7687 1.46615 13.3673 1.95759 13.3673H28.7578C29.2492 13.3673 29.6505 13.7687 29.6505 14.2601V16.1276H1.0648V14.2601ZM17.9951 5.34857H22.885C23.2044 5.34857 23.5075 5.53695 23.6467 5.82363L23.8515 6.24136C23.9498 6.44613 23.8679 6.60994 23.8269 6.67547C23.786 6.74099 23.6713 6.88843 23.442 6.88843H17.4299C17.2088 6.88843 17.0859 6.74099 17.045 6.67547C17.004 6.60994 16.9221 6.43794 17.0204 6.24136L17.2252 5.82363C17.3726 5.53695 17.6675 5.34857 17.9951 5.34857ZM7.83037 5.34857H12.7202C13.0397 5.34857 13.3427 5.53695 13.482 5.82363L13.6868 6.24136C13.785 6.44613 13.7031 6.60994 13.6622 6.67547C13.6212 6.74099 13.5066 6.88843 13.2772 6.88843H7.2652C7.04405 6.88843 6.92119 6.74099 6.88024 6.67547C6.83928 6.60994 6.75738 6.43794 6.85566 6.24136L7.06043 5.82363C7.20787 5.53695 7.50273 5.34857 7.83037 5.34857ZM5.48781 6.14307H5.77448C5.70077 6.51165 5.76629 6.90481 5.97925 7.24063C6.25774 7.68293 6.74099 7.95323 7.2652 7.95323H13.2772C13.8014 7.95323 14.2847 7.68293 14.5632 7.24063C14.7679 6.90481 14.8417 6.51984 14.7679 6.14307H15.9474C15.8737 6.51165 15.9392 6.90481 16.1522 7.24063C16.4307 7.68293 16.9139 7.95323 17.4381 7.95323H23.4501C23.9743 7.95323 24.4576 7.68293 24.7361 7.24063C24.9409 6.90481 25.0146 6.51984 24.9409 6.14307H25.2275L28.2417 12.3025H2.4818L5.48781 6.14307Z" fill="#58595B"/>
</svg>
