<svg width="30" height="30" viewBox="0 0 30 30" fill="none" xmlns="http://www.w3.org/2000/svg">
<circle cx="15" cy="15" r="15" fill="#8B8B8B"/>
<path fill-rule="evenodd" clip-rule="evenodd" d="M18.6637 23.6581C19.1117 23.2023 19.1117 22.4633 18.6637 22.0075L11.7771 15.0001L18.664 7.9925C19.112 7.53668 19.112 6.79765 18.664 6.34183C18.2161 5.88601 17.4898 5.886 17.0418 6.34183L9.4574 14.0592C9.41506 14.0916 9.37443 14.1275 9.33585 14.1668C9.10432 14.4023 8.99246 14.7136 9.00026 15.0223C9.0038 15.3162 9.11577 15.609 9.33615 15.8332C9.37399 15.8717 9.41381 15.907 9.45528 15.9389L17.0415 23.6581C17.4895 24.114 18.2158 24.114 18.6637 23.6581Z" fill="#fff"/>
</svg>
