<svg width="30" height="30" viewBox="0 0 30 30" fill="none" xmlns="http://www.w3.org/2000/svg">
<circle cx="15" cy="15" r="15" transform="rotate(180 15 15)" fill="white"/>
<path fill-rule="evenodd" clip-rule="evenodd" d="M11.3363 6.34187C10.8883 6.79769 10.8883 7.53672 11.3363 7.99254L18.2229 14.9999L11.336 22.0075C10.888 22.4633 10.888 23.2024 11.336 23.6582C11.7839 24.114 12.5102 24.114 12.9582 23.6582L20.5426 15.9408C20.5849 15.9084 20.6256 15.8725 20.6641 15.8332C20.8957 15.5977 21.0075 15.2864 20.9997 14.9777C20.9962 14.6838 20.8842 14.391 20.6639 14.1668C20.626 14.1283 20.5862 14.093 20.5447 14.0611L12.9585 6.34187C12.5105 5.88604 11.7842 5.88604 11.3363 6.34187Z" fill="black"/>
</svg>
