<svg width="20" height="25" viewBox="0 0 20 25" fill="none" xmlns="http://www.w3.org/2000/svg">
<path d="M6.96404 0.00087396C5.11374 -0.0286128 3.36256 0.688898 2.03074 2.02399C0.689096 3.36809 -0.0316933 5.14467 0.00106972 7.02609V24.0793C0.00106972 24.4519 0.303308 24.7542 0.675988 24.7542C1.04867 24.7542 1.35091 24.4519 1.35091 24.0793V7.01954C1.35091 7.01544 1.35091 7.01135 1.35091 7.00725C1.32306 5.49278 1.90378 4.06185 2.98578 2.9774C4.05631 1.90441 5.46267 1.3245 6.9411 1.35071C8.38841 1.37446 9.75217 1.97403 10.7809 3.03965C11.7671 4.06103 12.3183 5.38056 12.3495 6.77791H10.4132C10.1527 6.77791 9.91517 6.9278 9.80377 7.16287L8.27702 10.3745C8.17791 10.5833 8.19265 10.8291 8.31633 11.0248C8.44001 11.2206 8.65543 11.3393 8.88722 11.3393H17.1648C17.3966 11.3393 17.612 11.2206 17.7357 11.0248C17.8594 10.8291 17.8741 10.5833 17.775 10.3745L16.2483 7.16287C16.136 6.9278 15.8993 6.77791 15.6389 6.77791H13.7009C13.6698 5.02918 12.9842 3.3771 11.7532 2.1018C10.4738 0.776539 8.77255 0.0303607 6.96404 0.00087396ZM16.0984 9.9895H9.95694L10.8424 8.12775H15.2138L16.0984 9.9895Z" fill="#58595B"/>
<path d="M18.7629 12.0815H7.29015C6.91747 12.0815 6.61523 12.3838 6.61523 12.7565C6.61523 13.1291 6.91747 13.4314 7.29015 13.4314H18.7629C19.1356 13.4314 19.4379 13.1291 19.4379 12.7565C19.4379 12.3838 19.1356 12.0815 18.7629 12.0815Z" fill="#58595B"/>
<path d="M8.05846 18.0498C8.33694 18.0982 8.6269 17.9671 8.7686 17.705L10.0857 15.2633C10.2626 14.9349 10.1397 14.5262 9.8121 14.3493C9.48365 14.1723 9.07493 14.2952 8.89801 14.6228L7.58094 17.0645C7.40402 17.3929 7.52688 17.8017 7.85451 17.9786C7.91922 18.0146 7.98884 18.0384 8.05846 18.0498Z" fill="#58595B"/>
<path d="M18.6832 17.4824L17.3603 14.8483C17.1933 14.5149 16.7878 14.3806 16.4545 14.5477C16.1211 14.7147 15.9868 15.1202 16.1539 15.4535L17.4767 18.0877C17.6151 18.3629 17.9165 18.503 18.2048 18.4481C18.2654 18.4366 18.3252 18.417 18.3826 18.3875C18.7159 18.2212 18.8502 17.8158 18.6832 17.4824Z" fill="#58595B"/>
<path d="M13.1613 18.4982C13.5339 18.4982 13.8362 18.196 13.8362 17.8233V14.5052C13.8362 14.1326 13.5339 13.8303 13.1613 13.8303C12.7886 13.8303 12.4863 14.1326 12.4863 14.5052V17.8233C12.4863 18.196 12.7886 18.4982 13.1613 18.4982Z" fill="#58595B"/>
<path d="M9.74698 18.8183L8.88449 21.4066C8.76654 21.7604 8.95739 22.1421 9.31123 22.2601C9.38167 22.2838 9.45375 22.2953 9.52501 22.2953C9.80759 22.2953 10.0705 22.1167 10.1655 21.8333L11.028 19.245C11.146 18.8912 10.9551 18.5095 10.6013 18.3916C10.2474 18.2736 9.86492 18.4645 9.74698 18.8183Z" fill="#58595B"/>
<path d="M15.5596 21.9579C15.644 22.2544 15.9143 22.4477 16.2083 22.4477C16.2698 22.4477 16.332 22.4395 16.3943 22.4215C16.753 22.3191 16.9603 21.9456 16.8579 21.5868L16.0314 18.6939C15.929 18.3351 15.5555 18.1279 15.1968 18.2303C14.838 18.3326 14.6308 18.7061 14.7332 19.0649L15.5596 21.9579Z" fill="#58595B"/>
</svg>
