<svg width="31" height="21" viewBox="0 0 31 21" fill="none" xmlns="http://www.w3.org/2000/svg">
<path fill-rule="evenodd" clip-rule="evenodd" d="M4.23093 10.9064C4.27077 11.1545 4.34547 11.372 4.45503 11.5131C4.55961 11.6401 4.76047 11.7505 5.01529 11.8459C5.11987 11.8949 5.23192 11.9314 5.34895 11.9538C6.18892 12.192 7.34263 12.3107 7.83897 12.3497C8.11121 12.3688 8.34445 12.4078 8.57851 12.1937C8.81174 11.9414 8.75364 11.65 8.67562 11.3579C8.6308 11.1728 8.55029 10.9977 8.44571 10.8333H21.896C21.7914 10.9977 21.7109 11.172 21.6661 11.3579C21.588 11.65 21.5299 11.9422 21.764 12.1937C21.9964 12.4078 22.2496 12.3688 22.5226 12.3497C23.0057 12.3107 24.1561 12.192 24.9944 11.9538C25.1106 11.9314 25.221 11.8949 25.3247 11.8468C25.5804 11.7513 25.7812 11.6417 25.8858 11.5139C25.9954 11.3736 26.0701 11.1562 26.1099 10.908C26.1406 10.791 26.1581 10.669 26.1581 10.542C26.1581 10.459 26.1498 10.3776 26.1365 10.2988C26.1024 9.77007 25.9232 9.2563 25.5754 9.10275C25.5671 9.0986 25.5571 9.09694 25.5488 9.09362L24.2565 6.86007C24.3329 6.51811 24.2524 6.1446 24.1362 5.79683C23.961 5.27144 23.727 4.74687 23.4946 4.2414C23.1642 3.56079 22.6006 2.23859 21.725 2.14148C20.7912 2.02445 19.8193 1.98544 18.8855 1.94726C17.6405 1.90825 16.4154 1.88916 15.1713 1.88916C13.9262 1.88916 12.7012 1.90825 11.4561 1.94726C10.5224 1.98627 9.55044 2.02528 8.61669 2.14148C7.74186 2.23859 7.17745 3.56079 6.84711 4.2414C6.61388 4.74687 6.38065 5.27144 6.20552 5.79683C6.09015 6.1446 6.00963 6.51728 6.08517 6.85924L4.79284 9.09362C4.78454 9.09694 4.77458 9.09943 4.76628 9.10275C4.41851 9.2563 4.23923 9.77007 4.2052 10.2996C4.19192 10.3785 4.18362 10.4598 4.18362 10.542C4.18279 10.6665 4.20022 10.7893 4.23093 10.9064ZM7.66301 7.77806C12.6613 7.83616 17.6787 7.83616 22.6762 7.77806C23.1484 7.77806 23.6191 7.75897 23.9668 7.38463L24.9205 9.03386C24.7769 9.05046 24.6283 9.08034 24.4789 9.12184C24.3229 9.14757 24.1752 9.19737 24.0407 9.26958C23.6896 9.4057 23.3659 9.57253 23.1426 9.70367C22.8754 9.86801 22.589 10.0697 22.3384 10.3063H8.00165C7.75016 10.0697 7.46381 9.86718 7.19655 9.70367C6.9741 9.57336 6.65123 9.40736 6.3018 9.27124C6.1665 9.19903 6.01794 9.1484 5.86024 9.12267C5.71084 9.08117 5.56226 9.05129 5.41867 9.03469L6.37235 7.38547C6.72012 7.75897 7.19157 7.77806 7.66301 7.77806ZM24.7188 11.4542C24.2133 11.4542 23.8042 11.0458 23.8042 10.5403C23.8042 10.1618 24.0324 9.83813 24.3594 9.69869C24.3976 9.68458 24.4366 9.67213 24.474 9.65968C24.552 9.6381 24.6342 9.62565 24.7188 9.62565C25.1371 9.62565 25.5023 9.9062 25.6152 10.2905C25.6318 10.4698 25.631 10.6557 25.6069 10.8167C25.4857 11.1861 25.1272 11.4542 24.7188 11.4542ZM6.53503 10.5403C6.53503 11.0458 6.12667 11.4542 5.62119 11.4542C5.16054 11.4542 4.78206 11.1155 4.71732 10.674C4.71234 10.5918 4.7115 10.5055 4.71565 10.4191C4.77458 9.97011 5.15639 9.62565 5.62119 9.62565C5.7125 9.62565 5.8013 9.63976 5.88431 9.66466C5.89095 9.66715 5.89759 9.66881 5.90506 9.6713C6.27109 9.78999 6.53503 10.1328 6.53503 10.5403ZM7.85806 11.8426C7.48954 11.8127 6.99237 11.753 6.50847 11.6741C6.84462 11.411 7.06125 11.0026 7.06125 10.5403C7.06125 10.4241 7.04632 10.3112 7.02059 10.2033C7.58333 10.5553 8.06722 11.0093 8.18924 11.4732C8.30461 11.9206 8.22741 11.8617 7.85806 11.8426ZM22.4819 11.8426C22.1118 11.8617 22.0346 11.9206 22.1508 11.4724C22.2803 11.0109 22.7617 10.5594 23.3186 10.2083C23.2937 10.3146 23.2788 10.4258 23.2788 10.5395C23.2788 11.0018 23.4954 11.4102 23.8315 11.6733C23.3485 11.753 22.8513 11.8127 22.4819 11.8426ZM7.08034 6.0865C7.37251 5.26978 8.32453 3.11093 8.7138 3.05283C11.398 2.74158 18.9436 2.74158 21.6262 3.05283C22.0155 3.11093 22.9683 5.26978 23.2597 6.0865C23.5128 6.84513 23.2796 6.84513 22.6762 6.86505C17.5426 6.90406 12.7966 6.90406 7.6821 6.86505C7.06042 6.84513 6.82719 6.84513 7.08034 6.0865Z" fill="#58595B"/>
<path fill-rule="evenodd" clip-rule="evenodd" d="M28.6466 6.22256H27.4406C27.1285 6.22256 26.8322 6.3205 26.5882 6.49812L26.3134 6.18355C25.9432 5.24979 25.5548 4.31686 25.1464 3.42212C24.8551 2.79961 24.5629 2.15802 24.2135 1.55543C23.9222 1.04996 23.5329 0.388443 22.9104 0.252322C22.561 0.174301 22.1327 0.155211 21.7824 0.136121C21.1798 0.0971107 20.5764 0.0780204 19.9738 0.0581002C18.3404 0.0190899 16.7269 0 15.0926 0C13.479 0 11.8456 0.0199199 10.2312 0.0581002C9.62864 0.0771904 9.02605 0.0971107 8.42264 0.136121C8.0732 0.155211 7.64492 0.175131 7.29466 0.252322C6.67215 0.388443 6.26379 1.04996 5.97246 1.55543C5.64211 2.15802 5.33086 2.80044 5.05862 3.42212C4.65026 4.31686 4.24189 5.24979 3.89163 6.18355L3.61607 6.49812C3.37039 6.3205 3.06992 6.22256 2.74456 6.22256H1.55682C-0.445985 6.22256 -0.543095 9.52848 1.4207 9.80072L2.31545 9.91277V14.233C2.31545 14.5384 2.30549 14.8779 2.32126 15.219C2.31794 15.2597 2.31545 15.3003 2.31545 15.3418V19.4645C2.31545 20.3194 3.01514 21 3.85179 21H5.66037C6.49702 21 7.19672 20.3194 7.19672 19.4645V17.519H23.0067V19.4645C23.0067 20.3194 23.6873 21 24.543 21H26.3516C27.1874 21 27.8689 20.3194 27.8689 19.4645V15.3418C27.8689 15.3012 27.8664 15.2605 27.8639 15.2207C27.8797 14.8795 27.8689 14.5392 27.8689 14.2338V9.91443L28.7628 9.79989C30.7282 9.52848 30.6502 6.22256 28.6466 6.22256ZM4.68844 6.66993C4.68844 6.66993 6.76927 1.3222 7.48888 1.16616C8.87001 0.854907 21.335 0.854907 22.7162 1.16616C23.4358 1.32137 25.4967 6.66993 25.4967 6.66993L26.0412 7.29244C25.9441 9.19813 26.9559 8.77068 26.9559 9.82064V14.2338C26.9559 16.1196 26.9949 16.6649 25.1274 16.6059H5.05779C3.21019 16.6649 3.24921 16.1196 3.24921 14.2338V9.82064C3.24921 8.76985 4.24106 9.19813 4.14395 7.29244L4.68844 6.66993ZM1.55682 7.15632H2.7429C2.98444 7.15632 3.13467 7.27086 3.22929 7.44682C3.23095 7.66594 3.22929 7.96557 3.13135 8.12908C3.05333 8.26521 2.87819 8.44034 2.76199 8.55654C2.64247 8.69847 2.54951 8.84621 2.47896 9.00225L1.55599 8.86779C0.721006 8.75076 0.701084 7.15632 1.55682 7.15632ZM6.26296 19.4653C6.26296 19.7957 5.99072 20.0679 5.66037 20.0679H3.85179C3.52145 20.0679 3.24837 19.7957 3.24837 19.4653V17.1737C3.77543 17.4833 4.45105 17.5198 5.05696 17.5198H6.26213V19.4653H6.26296ZM26.3524 20.0671H24.5439C24.2135 20.0671 23.9413 19.7948 23.9413 19.4645V17.519H25.1274C25.7515 17.519 26.423 17.4824 26.9559 17.1679V19.4645C26.955 19.7957 26.6828 20.0671 26.3524 20.0671ZM28.6466 8.86696L27.7045 9.00142C27.6348 8.84538 27.541 8.69764 27.4215 8.55571C27.3244 8.43951 27.1302 8.26355 27.0712 8.12826C26.97 7.95893 26.9567 7.64187 26.9675 7.42109C27.0629 7.25924 27.2098 7.15549 27.4398 7.15549H28.6457C29.4832 7.15632 29.4832 8.75076 28.6466 8.86696Z" fill="#58595B"/>
<path fill-rule="evenodd" clip-rule="evenodd" d="M20.3238 12.1311H10.0152C9.86161 12.1311 9.73047 12.3627 9.73047 12.6714C9.73047 12.942 9.86161 13.1728 10.0152 13.1728H20.3238C20.4774 13.1728 20.6085 12.9412 20.6085 12.6714C20.6094 12.3627 20.4774 12.1311 20.3238 12.1311Z" fill="#58595B"/>
</svg>
