<svg width="16" height="13" viewBox="0 0 16 13" fill="none" xmlns="http://www.w3.org/2000/svg">
<path d="M1.14286 1.18182V10.6364C1.15467 10.9688 1.26781 11.2458 1.48229 11.4672C1.69676 11.6886 1.96457 11.8056 2.28571 11.8182H13.7143C14.0358 11.806 14.3036 11.689 14.5177 11.4672C14.7318 11.2454 14.845 10.9685 14.8571 10.6364V1.18182H1.14286ZM1.14286 0H14.8571C15.1787 0.0122121 15.4465 0.129212 15.6606 0.351C15.8747 0.572788 15.9878 0.849727 16 1.18182V10.6364C15.9882 11.3013 15.765 11.8584 15.3303 12.3075C14.8956 12.7565 14.357 12.9874 13.7143 13H2.28571C1.64267 12.9878 1.104 12.7569 0.669714 12.3075C0.235429 11.858 0.0121905 11.3009 0 10.6364V1.18182C0.0118095 0.849333 0.124952 0.572394 0.339429 0.351C0.553905 0.129606 0.821714 0.0126061 1.14286 0ZM15 1.18182L10.5891 6.40782C10.2558 6.78955 9.8659 7.085 9.41943 7.29418C8.97295 7.50336 8.49981 7.60795 8 7.60795C7.50019 7.60795 7.02705 7.50336 6.58057 7.29418C6.1341 7.085 5.74419 6.78955 5.41086 6.40782L1 1.18182H15ZM2.51771 1.18182L6.28571 5.63195C6.50019 5.89038 6.75619 6.08735 7.05371 6.22286C7.35124 6.35838 7.66667 6.42614 8 6.42614C8.33333 6.42614 8.64876 6.35838 8.94629 6.22286C9.24381 6.08735 9.49981 5.89038 9.71429 5.63195L13.4823 1.18182H2.51771Z" fill="#58595B"/>
</svg>
