<svg width="16" height="17" viewBox="0 0 16 17" fill="none" xmlns="http://www.w3.org/2000/svg">
<path d="M0.172108 6.43324L10.0668 16.3279C10.1569 16.418 10.263 16.4727 10.3852 16.4921C10.5075 16.5114 10.6264 16.4954 10.742 16.4439L15.6217 14.3608C15.8275 14.2707 15.9497 14.1197 15.9884 13.9078C16.0271 13.6959 15.9692 13.5125 15.8149 13.3578L12.864 10.3871C12.7611 10.297 12.6453 10.2392 12.5165 10.2137C12.3877 10.1882 12.2655 10.2075 12.1499 10.2717L10.7994 10.947L5.55303 5.7006L6.22827 4.35012C6.29246 4.23449 6.3118 4.11228 6.28629 3.98349C6.26078 3.8547 6.20296 3.73887 6.11285 3.636L3.14217 0.685067C2.98787 0.530762 2.80455 0.472949 2.59223 0.511628C2.3799 0.550308 2.22889 0.672517 2.13919 0.878257L0.0560701 5.758C0.00463505 5.87363 -0.0114126 5.99254 0.00792699 6.11475C0.0272666 6.23696 0.0819934 6.34312 0.172108 6.43324ZM1.34853 5.8549L2.91071 2.18985L4.93581 4.19582L4.04825 5.95119L10.5482 12.4511L12.3036 11.5636L14.3095 13.5887L10.6445 15.1509L1.34853 5.8549Z" fill="#58595B"/>
</svg>
