<svg width="24" height="25" viewBox="0 0 24 25" fill="none" xmlns="http://www.w3.org/2000/svg">
<path d="M20.5846 0.5H3.41538C1.47692 0.5 0 1.97692 0 3.91539V21.0846C0 23.0231 1.47692 24.5 3.41538 24.5H20.5846C22.5231 24.5 24 23.0231 24 21.0846V3.91539C24 1.97692 22.5231 0.5 20.5846 0.5ZM12 19.7C15.9692 19.7 19.2 16.5615 19.2 12.7769C19.2 12.1308 19.1077 11.3923 18.9231 10.8385H20.9538V20.6231C20.9538 21.0846 20.5846 21.5462 20.0308 21.5462H3.96923C3.5077 21.5462 3.04616 21.1769 3.04616 20.6231V10.7462H5.16924C4.98462 11.3923 4.89231 12.0385 4.89231 12.6846C4.8 16.5615 8.03077 19.7 12 19.7ZM12 16.9308C9.41538 16.9308 7.38462 14.9 7.38462 12.4077C7.38462 9.91539 9.41538 7.88462 12 7.88462C14.5846 7.88462 16.6154 9.91539 16.6154 12.4077C16.6154 14.9923 14.5846 16.9308 12 16.9308ZM20.8615 7.05384C20.8615 7.60769 20.4 8.06923 19.8462 8.06923H17.2615C16.7077 8.06923 16.2462 7.60769 16.2462 7.05384V4.56154C16.2462 4.00769 16.7077 3.54615 17.2615 3.54615H19.8462C20.4 3.54615 20.8615 4.00769 20.8615 4.56154V7.05384Z" fill="white"/>
</svg>
