<svg width="29" height="29" viewBox="0 0 29 29" fill="none" xmlns="http://www.w3.org/2000/svg">
<path d="M24.6269 0H4.51777C2.24739 0 0.517578 1.72981 0.517578 4.00019V24.1093C0.517578 26.3797 2.24739 28.1095 4.51777 28.1095H24.6269C26.8972 28.1095 28.627 26.3797 28.627 24.1093V4.00019C28.627 1.72981 26.8972 0 24.6269 0ZM14.5723 22.4876C19.2212 22.4876 23.0052 18.8117 23.0052 14.3791C23.0052 13.6223 22.897 12.7574 22.6808 12.1087H25.0593V23.5687C25.0593 24.1093 24.6268 24.6498 23.9782 24.6498H5.16645C4.62589 24.6498 4.08532 24.2174 4.08532 23.5687V12.0006H6.57193C6.3557 12.7574 6.24759 13.5142 6.24759 14.271C6.13947 18.8117 9.92344 22.4876 14.5723 22.4876ZM14.5723 19.2442C11.5451 19.2442 9.16665 16.8657 9.16665 13.9466C9.16665 11.0276 11.5451 8.64907 14.5723 8.64907C17.5995 8.64907 19.978 11.0276 19.978 13.9466C19.978 16.9738 17.5995 19.2442 14.5723 19.2442ZM24.9512 7.67605C24.9512 8.32473 24.4106 8.86529 23.7619 8.86529H20.7348C20.0861 8.86529 19.5455 8.32473 19.5455 7.67605V4.75699C19.5455 4.10831 20.0861 3.56774 20.7348 3.56774H23.7619C24.4106 3.56774 24.9512 4.10831 24.9512 4.75699V7.67605Z" fill="#F47920"/>
</svg>
