<svg width="13" height="15" viewBox="0 0 13 15" fill="none" xmlns="http://www.w3.org/2000/svg">
<path d="M2.92787 14.4919H0.195613V5.16439H2.92787V14.4919ZM1.55985 3.87181C1.24992 3.86993 0.947456 3.76943 0.690625 3.58298C0.433794 3.39653 0.234109 3.1325 0.11677 2.8242C-0.000569399 2.5159 -0.0303029 2.17715 0.0313214 1.8507C0.0929457 1.52426 0.243166 1.22475 0.463024 0.989973C0.682882 0.755197 0.962524 0.595676 1.26666 0.531544C1.57079 0.467412 1.88579 0.501542 2.17189 0.629627C2.45799 0.757712 2.70238 0.974011 2.87421 1.25123C3.04604 1.52844 3.13761 1.85415 3.13737 2.18725C3.14029 2.41025 3.10141 2.63161 3.02304 2.83813C2.94467 3.04464 2.82841 3.23208 2.6812 3.38928C2.53399 3.54648 2.35884 3.67022 2.16619 3.75312C1.97354 3.83602 1.76733 3.87638 1.55985 3.87181ZM12.9987 14.5H10.2677V9.40427C10.2677 7.90146 9.67333 7.4376 8.90603 7.4376C8.09582 7.4376 7.30075 8.09406 7.30075 9.44225V14.5H4.56849V5.17117H7.196V6.46375H7.23134C7.4951 5.89003 8.41889 4.9094 9.82856 4.9094C11.3531 4.9094 13 5.88189 13 8.73018L12.9987 14.5Z" fill="#58595B"/>
</svg>
