<svg width="29" height="29" viewBox="0 0 29 29" fill="none" xmlns="http://www.w3.org/2000/svg">
<path d="M6.82376 28.0384H0.938898V9.38347H6.82376V28.0384ZM3.87725 6.7983C3.20972 6.79455 2.55825 6.59354 2.00508 6.22065C1.4519 5.84775 1.02181 5.31968 0.769082 4.70308C0.516352 4.08648 0.45231 3.40899 0.58504 2.7561C0.717769 2.10321 1.04132 1.50419 1.51486 1.03463C1.9884 0.565081 2.59071 0.24604 3.24576 0.117775C3.90082 -0.0104894 4.57927 0.0577711 5.19549 0.313941C5.81171 0.570111 6.33809 1.00271 6.70818 1.55714C7.07828 2.11157 7.27551 2.76299 7.27498 3.42918C7.28128 3.8752 7.19753 4.31791 7.02873 4.73094C6.85993 5.14397 6.60954 5.51885 6.29247 5.83325C5.97541 6.14764 5.59816 6.39512 5.18322 6.56092C4.76827 6.72672 4.32413 6.80745 3.87725 6.7983ZM28.5149 28.0547H22.6327V17.8632C22.6327 14.8576 21.3525 13.9299 19.6998 13.9299C17.9547 13.9299 16.2423 15.2428 16.2423 17.9392V28.0547H10.3574V9.39703H16.0167V11.9822H16.0928C16.6609 10.8347 18.6506 8.87349 21.6868 8.87349C24.9704 8.87349 28.5176 10.8185 28.5176 16.515L28.5149 28.0547Z" fill="#F47920"/>
</svg>
