<svg width="120" height="132" viewBox="0 0 120 132" fill="none" xmlns="http://www.w3.org/2000/svg">
<path fill-rule="evenodd" clip-rule="evenodd" d="M20.5412 0L98.1214 0.0426265C110.118 0.052099 119.87 9.8183 119.861 21.82C119.851 33.8123 110.095 43.5595 98.1072 43.5595H98.093H94.7539L94.7018 128.509C94.7018 129.708 93.9867 130.778 92.8784 131.237C91.789 131.702 90.5197 131.465 89.6624 130.626C89.4588 130.428 89.3214 130.295 89.2646 130.243L89.2172 130.195L80.5688 121.533L71.4088 130.679C70.5516 131.531 69.2822 131.782 68.174 131.323C67.3309 130.967 66.7057 130.252 66.4594 129.395L58.5972 121.519L49.4373 130.664C48.8642 131.242 48.059 131.56 47.2301 131.531C46.3824 131.488 45.6056 131.105 45.0751 130.475L44.7152 130.049L36.1852 121.504L27.0347 130.65C26.1821 131.503 24.9081 131.754 23.7998 131.294C23.3262 131.095 22.9188 130.783 22.6062 130.385L14.2183 121.983L5.06782 131.129C4.5042 131.692 3.7606 132 2.96965 132C2.56233 131.995 2.17869 131.919 1.81873 131.763C0.719914 131.309 0 130.233 0 129.03L0.0615716 21.3701C0.0710441 10.1546 8.81895 0.809903 19.9918 0.0568353C20.1718 0.0236814 20.3565 0 20.5412 0ZM34.0538 37.5871L98.1025 37.625H98.112C106.831 37.625 113.926 30.53 113.936 21.8106C113.941 13.0863 106.846 5.98665 98.1214 5.98192L34.1201 5.94403C38.4301 10.0362 40.9262 15.7292 40.9214 21.7395C40.9167 27.783 38.4017 33.4949 34.0538 37.5871ZM82.6717 115.229L88.7815 121.348L88.8241 43.5501L19.1819 43.5122C17.5526 43.5122 16.2265 42.186 16.2217 40.552C16.2217 39.761 16.5296 39.0127 17.0885 38.4538C17.6474 37.8902 18.3957 37.5823 19.1867 37.5823C27.8919 37.5587 34.9821 30.4543 34.9869 21.7395C34.9916 13.6357 28.7018 6.72078 20.6454 5.95824C12.4233 6.37503 5.99139 13.1337 5.98665 21.3748L5.92982 121.869L12.1107 115.688C12.6601 115.139 13.4273 114.822 14.2088 114.822C14.9903 114.822 15.7576 115.139 16.307 115.688L24.946 124.341L34.087 115.205C35.2237 114.078 37.1419 114.078 38.2786 115.205L47.3912 124.327L56.5132 115.219C57.0674 114.67 57.8299 114.353 58.6067 114.353C59.3834 114.353 60.146 114.665 60.7001 115.215L69.5854 124.114L78.4801 115.229C79.0342 114.675 79.7968 114.362 80.5735 114.362H80.5783C81.355 114.367 82.1176 114.679 82.6717 115.229ZM34.8359 94.7398C34.907 94.7587 34.978 94.7587 35.0443 94.7398L35.2006 94.6971H37.6161C39.2501 94.6971 40.581 96.028 40.581 97.6668C40.581 99.3008 39.2501 100.632 37.6161 100.632H31.8094C30.1754 100.632 28.8445 99.3008 28.8445 97.6668C28.8445 96.028 30.1754 94.6971 31.8094 94.6971H34.6796L34.8359 94.7398ZM73.8809 94.6971C72.2469 94.6971 70.916 96.028 70.916 97.6668C70.916 99.3008 72.2469 100.632 73.8809 100.632H79.6923C81.3263 100.632 82.6572 99.3008 82.6572 97.6668C82.6572 96.028 81.3263 94.6971 79.6923 94.6971H73.8809ZM59.8565 94.6971H65.6631C67.2971 94.6971 68.628 96.028 68.628 97.6668C68.628 99.3008 67.2971 100.632 65.6631 100.632H59.8565C58.2224 100.632 56.8916 99.3008 56.8916 97.6668C56.8916 96.028 58.2224 94.6971 59.8565 94.6971ZM45.8323 100.632H51.6437C53.2777 100.632 54.6086 99.3008 54.6086 97.6668C54.6086 96.028 53.2777 94.6971 51.6437 94.6971H45.8323C44.1982 94.6971 42.8673 96.028 42.8673 97.6668C42.8626 99.3008 44.1935 100.632 45.8323 100.632ZM17.7853 94.6971H23.5967C25.2307 94.6971 26.5616 96.028 26.5616 97.6668C26.5616 99.3008 25.2307 100.632 23.5967 100.632H17.7853C16.1512 100.632 14.8203 99.3008 14.8203 97.6668C14.8203 96.028 16.1512 94.6971 17.7853 94.6971ZM46.529 76.074H67.4965C69.1306 76.074 70.4614 74.7431 70.4614 73.1091C70.4614 71.4704 69.1306 70.1395 67.4965 70.1395H46.529C44.895 70.1395 43.5641 71.4704 43.5641 73.1091C43.5641 74.7431 44.895 76.074 46.529 76.074ZM67.4965 85.8024H46.529C44.895 85.8024 43.5641 84.4715 43.5641 82.8375C43.5641 81.1988 44.895 79.8679 46.529 79.8679H67.4965C69.1306 79.8679 70.4614 81.1988 70.4614 82.8375C70.4614 84.4715 69.1306 85.8024 67.4965 85.8024ZM46.529 65.7869H76.9738C78.6078 65.7869 79.9387 64.456 79.9387 62.822C79.9387 61.188 78.6078 59.8571 76.9738 59.8571H46.529C44.895 59.8571 43.5641 61.188 43.5641 62.822C43.5641 64.456 44.895 65.7869 46.529 65.7869ZM23.232 75.932C18.5667 75.7804 14.8203 71.9346 14.8203 67.2315C14.8203 62.5331 18.5667 58.692 23.232 58.5309V57.3326C23.232 55.5471 24.5629 54.093 26.1969 54.093C27.8309 54.093 29.1618 55.5471 29.1618 57.3326V58.5262H31.9609C33.5949 58.5262 34.9258 59.8571 34.9258 61.4911C34.9258 63.1299 33.5949 64.4607 31.9609 64.4607H29.1618V70.0022C29.1831 70.0046 29.2032 70.0057 29.2234 70.0069C29.2435 70.0081 29.2636 70.0093 29.2849 70.0117C33.9407 70.2248 37.5782 74.0328 37.5782 78.7027C37.5782 83.4059 33.827 87.247 29.1618 87.3985V88.8715C29.1618 89.7477 28.8445 90.5671 28.2714 91.1781C27.722 91.7748 26.9831 92.1064 26.1969 92.1064C25.4107 92.1064 24.6718 91.7748 24.1129 91.1733C23.5493 90.5671 23.232 89.7477 23.232 88.8763V87.408H17.7853C16.1512 87.408 14.8203 86.0771 14.8203 84.4431C14.8203 82.8091 16.1512 81.4782 17.7853 81.4782H23.232V75.932ZM23.232 64.4844C21.8348 64.6265 20.7454 65.8058 20.7454 67.2315C20.7454 68.6666 21.8395 69.8506 23.232 69.9927V64.4844ZM29.1618 75.951V81.4592C30.5543 81.3172 31.6436 80.1378 31.6436 78.7075C31.6436 77.2771 30.5543 76.0978 29.1618 75.951Z" fill="url(#paint0_linear)"/>
<defs>
<linearGradient id="paint0_linear" x1="10.4137" y1="132.037" x2="111.201" y2="133.199" gradientUnits="userSpaceOnUse">
<stop stop-color="#E8AD00"/>
<stop offset="1" stop-color="#F47920"/>
</linearGradient>
</defs>
</svg>
