<svg width="140" height="120" viewBox="0 0 140 120" fill="none" xmlns="http://www.w3.org/2000/svg">
<path fill-rule="evenodd" clip-rule="evenodd" d="M125.557 67.5552V11.0024C125.557 9.51954 124.344 8.31 122.858 8.31H106.901V2.69235C106.901 1.20506 105.688 0 104.202 0H94.2226C92.736 0 91.5234 1.20954 91.5234 2.69235V8.31H34.0288V2.69235C34.0288 1.20506 32.8162 0 31.3297 0H21.355C19.8685 0 18.6559 1.20954 18.6559 2.69235V8.31H2.69913C1.21259 8.31 0 9.51954 0 11.0024V106.458C0 107.94 1.21259 109.15 2.69913 109.15H89.7764C95.0759 115.955 103.321 120 111.944 120C127.412 120 140 107.448 140 92.0148C139.996 81.8233 134.48 72.5143 125.557 67.5552ZM24.0586 8.31V5.3847H28.6305V8.31H24.0586ZM96.9262 8.31V5.3847H101.498V8.31H96.9262ZM120.154 65.257C117.5 64.4462 114.747 64.034 111.94 64.034C96.4681 64.034 83.8841 76.5864 83.8841 92.0193C83.8841 96.0779 84.7779 100.101 86.48 103.765H5.39826V29.262H120.154V65.257ZM111.94 69.4232C124.429 69.4232 134.593 79.561 134.593 92.0193C134.593 104.478 124.429 114.615 111.94 114.615C99.4502 114.615 89.2869 104.478 89.2869 92.0193C89.2869 79.561 99.4502 69.4232 111.94 69.4232ZM5.39826 23.8773V13.6947H120.154V23.8773H5.39826ZM111.824 51.625H13.7299C12.2434 51.625 11.0308 50.4155 11.0308 48.9327V37.9303C11.0308 36.4475 12.2434 35.238 13.7299 35.238H111.824C113.31 35.238 114.523 36.4475 114.523 37.9303V48.9327C114.523 50.4155 113.315 51.625 111.824 51.625ZM16.4291 40.6227V46.2403H109.125V40.6227H16.4291ZM24.76 72.6935H13.7299C12.2434 72.6935 11.0308 71.4839 11.0308 70.0011V58.9988C11.0308 57.516 12.2434 56.3064 13.7299 56.3064H24.76C26.2465 56.3064 27.4591 57.5115 27.4591 58.9988V70.0011C27.4591 71.4839 26.2465 72.6935 24.76 72.6935ZM16.4291 61.6866V67.3043H22.0609V61.6866H16.4291ZM46.5267 56.302H35.4966C34.0101 56.302 32.7975 57.5116 32.7975 58.9944V69.9967C32.7975 71.4795 34.0101 72.6891 35.4966 72.6891H46.5267C48.0132 72.6891 49.2258 71.4795 49.2258 69.9967V58.9988C49.2258 57.5116 48.0132 56.302 46.5267 56.302ZM43.8231 61.6912V67.3089H38.1958V61.6912H43.8231ZM57.2623 56.302H68.2923C69.7834 56.302 70.9915 57.5116 70.9915 58.9988V69.9967C70.9915 71.4795 69.7789 72.6891 68.2923 72.6891H57.2623C55.7757 72.6891 54.5631 71.4795 54.5631 69.9967V58.9944C54.5631 57.5116 55.7712 56.302 57.2623 56.302ZM65.5932 67.3089V61.6912H59.9614V67.3089H65.5932ZM90.0582 56.302H79.0281C77.537 56.302 76.3289 57.5116 76.3289 58.9944V69.9967C76.3289 71.4795 77.5415 72.6891 79.0281 72.6891H90.0582C91.5492 72.6891 92.7573 71.4795 92.7573 69.9967V58.9988C92.7573 57.5116 91.5447 56.302 90.0582 56.302ZM81.7272 67.3044V61.6867H87.359V67.3044H81.7272ZM24.76 93.762H13.7299C12.2434 93.762 11.0308 92.5524 11.0308 91.0696V80.0673C11.0308 78.5844 12.2434 77.3749 13.7299 77.3749H24.76C26.2465 77.3749 27.4591 78.5844 27.4591 80.0673V91.0696C27.4591 92.5524 26.2465 93.762 24.76 93.762ZM16.4291 82.7596V88.3728H22.0609V82.7596H16.4291ZM46.5267 77.3704H35.4966C34.0101 77.3704 32.7975 78.58 32.7975 80.0628V91.0651C32.7975 92.5479 34.0101 93.7575 35.4966 93.7575H46.5267C48.0132 93.7575 49.2258 92.5479 49.2258 91.0651V80.0628C49.2258 78.58 48.0132 77.3704 46.5267 77.3704ZM43.8231 82.7596V88.3728H38.1958V82.7596H43.8231ZM57.2623 77.3704H68.2923C69.7834 77.3704 70.9915 78.58 70.9915 80.0628V91.0651C70.9915 92.5479 69.7789 93.7575 68.2923 93.7575H57.2623C55.7757 93.7575 54.5631 92.5479 54.5631 91.0651V80.0628C54.5631 78.58 55.7712 77.3704 57.2623 77.3704ZM65.5932 88.3728V82.7596H59.9614V88.3728H65.5932ZM101.152 102.291C101.152 100.746 102.414 99.4871 103.963 99.4871V99.4826H109.133V94.2368C104.709 94.0934 101.157 90.4559 101.157 86.0074C101.157 81.5635 104.709 77.9304 109.133 77.787V76.6536C109.133 74.9648 110.395 73.5895 111.944 73.5895C113.493 73.5895 114.755 74.9648 114.755 76.6536V77.7826H117.41C118.959 77.7826 120.221 79.0414 120.221 80.5869C120.221 82.1369 118.959 83.3957 117.41 83.3957H114.755V88.6371C114.796 88.6371 114.832 88.6371 114.872 88.6415C119.287 88.8431 122.736 92.4449 122.736 96.862C122.736 101.31 119.179 104.943 114.755 105.087V106.48C114.755 107.309 114.455 108.084 113.911 108.662C113.39 109.226 112.69 109.54 111.944 109.54C111.199 109.54 110.498 109.226 109.968 108.657C109.434 108.084 109.133 107.309 109.133 106.485V105.096H103.963C102.414 105.096 101.152 103.837 101.152 102.291ZM109.133 83.4181C107.808 83.5525 106.775 84.668 106.775 86.0164C106.775 87.3738 107.808 88.4937 109.133 88.6281V83.4181ZM114.751 94.2637V99.4737C116.071 99.3393 117.104 98.2193 117.104 96.8709C117.104 95.518 116.071 94.4025 114.751 94.2637Z" fill="url(#paint0_linear)"/>
<defs>
<linearGradient id="paint0_linear" x1="12.1634" y1="120.034" x2="129.875" y2="121.778" gradientUnits="userSpaceOnUse">
<stop stop-color="#FFFFFF"/>
<stop offset="1" stop-color="#FFFFFF"/>
</linearGradient>
</defs>
</svg>
