<svg width="170" height="146" viewBox="0 0 170 146" fill="none" xmlns="http://www.w3.org/2000/svg">
<path fill-rule="evenodd" clip-rule="evenodd" d="M152.462 82.1921V13.3862C152.462 11.5821 150.989 10.1105 149.184 10.1105H129.808V3.27569C129.808 1.46616 128.336 0 126.531 0H114.413C112.608 0 111.136 1.47161 111.136 3.27569V10.1105H41.3207V3.27569C41.3207 1.46616 39.8483 0 38.0432 0H25.9311C24.126 0 22.6536 1.47161 22.6536 3.27569V10.1105H3.27752C1.47243 10.1105 0 11.5821 0 13.3862V129.523C0 131.327 1.47243 132.799 3.27752 132.799H109.014C115.449 141.078 125.462 146 135.932 146C154.714 146 170 130.728 170 111.951C169.995 99.5516 163.298 88.2257 152.462 82.1921ZM29.2141 10.1105V6.55139H34.7657V10.1105H29.2141ZM117.696 10.1105V6.55139H123.248V10.1105H117.696ZM145.901 79.396C142.678 78.4095 139.335 77.9081 135.927 77.9081C117.14 77.9081 101.859 93.1801 101.859 111.957C101.859 116.895 102.945 121.789 105.011 126.248H6.55503V35.602H145.901V79.396ZM135.927 84.4649C151.093 84.4649 163.434 96.7992 163.434 111.957C163.434 127.114 151.093 139.449 135.927 139.449C120.761 139.449 108.42 127.114 108.42 111.957C108.42 96.7992 120.761 84.4649 135.927 84.4649ZM6.55503 29.0507V16.6619H145.901V29.0507H6.55503ZM135.786 62.8104H16.6721C14.8671 62.8104 13.3946 61.3388 13.3946 59.5347V46.1485C13.3946 44.3444 14.8671 42.8728 16.6721 42.8728H135.786C137.591 42.8728 139.064 44.3444 139.064 46.1485V59.5347C139.064 61.3388 137.597 62.8104 135.786 62.8104ZM19.9497 49.4242V56.259H132.509V49.4242H19.9497ZM30.0658 88.4438H16.6721C14.8671 88.4438 13.3946 86.9722 13.3946 85.1681V71.7819C13.3946 69.9778 14.8671 68.5062 16.6721 68.5062H30.0658C31.8709 68.5062 33.3433 69.9724 33.3433 71.7819V85.1681C33.3433 86.9722 31.8709 88.4438 30.0658 88.4438ZM19.9497 75.0521V81.8869H26.7883V75.0521H19.9497ZM56.4966 68.5008H43.1029C41.2978 68.5008 39.8254 69.9725 39.8254 71.7765V85.1627C39.8254 86.9668 41.2978 88.4384 43.1029 88.4384H56.4966C58.3017 88.4384 59.7741 86.9668 59.7741 85.1627V71.782C59.7741 69.9725 58.3017 68.5008 56.4966 68.5008ZM53.2136 75.0577V81.8925H46.3804V75.0577H53.2136ZM69.5326 68.5008H82.9263C84.7368 68.5008 86.2038 69.9725 86.2038 71.782V85.1627C86.2038 86.9668 84.7313 88.4384 82.9263 88.4384H69.5326C67.7275 88.4384 66.2551 86.9668 66.2551 85.1627V71.7765C66.2551 69.9725 67.7221 68.5008 69.5326 68.5008ZM79.6487 81.8925V75.0577H72.8101V81.8925H79.6487ZM109.356 68.5008H95.9625C94.1519 68.5008 92.685 69.9725 92.685 71.7765V85.1627C92.685 86.9668 94.1574 88.4384 95.9625 88.4384H109.356C111.167 88.4384 112.634 86.9668 112.634 85.1627V71.782C112.634 69.9725 111.161 68.5008 109.356 68.5008ZM99.24 81.887V75.0522H106.079V81.887H99.24ZM30.0658 114.077H16.6721C14.8671 114.077 13.3946 112.605 13.3946 110.801V97.4152C13.3946 95.6111 14.8671 94.1395 16.6721 94.1395H30.0658C31.8709 94.1395 33.3433 95.6111 33.3433 97.4152V110.801C33.3433 112.605 31.8709 114.077 30.0658 114.077ZM19.9497 100.691V107.52H26.7883V100.691H19.9497ZM56.4966 94.1341H43.1029C41.2978 94.1341 39.8254 95.6057 39.8254 97.4098V110.796C39.8254 112.6 41.2978 114.072 43.1029 114.072H56.4966C58.3017 114.072 59.7741 112.6 59.7741 110.796V97.4098C59.7741 95.6057 58.3017 94.1341 56.4966 94.1341ZM53.2136 100.691V107.52H46.3804V100.691H53.2136ZM69.5326 94.1341H82.9263C84.7368 94.1341 86.2038 95.6057 86.2038 97.4098V110.796C86.2038 112.6 84.7313 114.072 82.9263 114.072H69.5326C67.7275 114.072 66.2551 112.6 66.2551 110.796V97.4098C66.2551 95.6057 67.7221 94.1341 69.5326 94.1341ZM79.6487 107.52V100.691H72.8101V107.52H79.6487ZM122.828 124.455C122.828 122.574 124.36 121.043 126.241 121.043V121.037H132.518V114.655C127.147 114.48 122.833 110.055 122.833 104.642C122.833 99.2355 127.147 94.8153 132.518 94.6409V93.2619C132.518 91.2071 134.051 89.5338 135.932 89.5338C137.814 89.5338 139.346 91.2071 139.346 93.2619V94.6354H142.569C144.45 94.6354 145.983 96.167 145.983 98.0474C145.983 99.9332 144.45 101.465 142.569 101.465H139.346V107.842C139.376 107.842 139.403 107.842 139.431 107.843C139.45 107.844 139.468 107.845 139.488 107.847C144.849 108.092 149.037 112.475 149.037 117.849C149.037 123.261 144.718 127.681 139.346 127.856V129.551C139.346 130.559 138.981 131.502 138.321 132.205C137.688 132.892 136.837 133.273 135.932 133.273C135.027 133.273 134.176 132.892 133.533 132.2C132.884 131.502 132.518 130.559 132.518 129.556V127.867H126.241C124.36 127.867 122.828 126.335 122.828 124.455ZM132.518 101.492C130.91 101.656 129.655 103.013 129.655 104.653C129.655 106.305 130.91 107.667 132.518 107.831V101.492ZM139.341 114.687V121.026C140.944 120.863 142.198 119.5 142.198 117.86C142.198 116.214 140.944 114.856 139.341 114.687Z" fill="white"/>
</svg>
