<svg width="1354" height="30" viewBox="0 0 1354 30" fill="none" xmlns="http://www.w3.org/2000/svg">
<path fill-rule="evenodd" clip-rule="evenodd" d="M1337.05 0.569776C1336.26 1.32948 1336.26 2.5612 1337.05 3.3209L1349.13 14.9999L1337.05 26.6791C1336.26 27.4388 1336.26 28.6705 1337.05 29.4302C1337.83 30.1899 1339.11 30.1899 1339.89 29.4302L1353.2 16.5676C1353.27 16.5136 1353.34 16.454 1353.41 16.3887C1353.81 16.0003 1354.01 15.4885 1354 14.9794C1354 14.484 1353.8 13.9892 1353.41 13.6113C1353.34 13.5467 1353.27 13.4877 1353.2 13.4341L1339.89 0.569777C1339.11 -0.189925 1337.83 -0.189926 1337.05 0.569776Z" fill="#fff"/>
<path fill-rule="evenodd" clip-rule="evenodd" d="M16.9547 29.4302C17.7406 28.6705 17.7406 27.4388 16.9547 26.6791L4.8726 15.0001L16.955 3.3209C17.7409 2.5612 17.7409 1.32948 16.955 0.569778C16.1691 -0.189924 14.8948 -0.189926 14.1089 0.569776L0.802284 13.4324C0.728231 13.4864 0.657157 13.546 0.589685 13.6113C0.187782 13.9998 -0.00859693 14.5117 0.000544946 15.0208C0.00253808 15.5161 0.199014 16.0108 0.589973 16.3887C0.656726 16.4533 0.727004 16.5123 0.800205 16.5659L14.1086 29.4302C14.8945 30.1899 16.1688 30.1899 16.9547 29.4302Z" fill="#fff"/>
</svg>