<svg width="13" height="15" viewBox="0 0 13 15" fill="none" xmlns="http://www.w3.org/2000/svg">
<path fill-rule="evenodd" clip-rule="evenodd" d="M0.5 0.5C0.223858 0.5 0 0.723857 0 1V14C0 14.2761 0.223858 14.5 0.5 14.5C0.776142 14.5 1 14.2761 1 14V10.5H12C12.1953 10.5 12.3727 10.3863 12.4543 10.2089C12.5358 10.0315 12.5067 9.82286 12.3796 9.6746L9.61868 6.4535L11.924 2.765C12.0203 2.61087 12.0254 2.41659 11.9373 2.25762C11.8492 2.09864 11.6818 2 11.5 2H1V1C1 0.723858 0.776142 0.5 0.5 0.5Z" fill="white"/>
</svg>
