<svg width="73" height="72" viewBox="0 0 73 72" fill="none" xmlns="http://www.w3.org/2000/svg">
<path d="M2.28125 45.4545H70.7188C71.3849 45.4545 71.9316 45.6674 72.359 46.0932C72.7863 46.5189 73 47.0636 73 47.7273C73 48.3909 72.7863 48.9356 72.359 49.3614C71.9316 49.7871 71.3849 50 70.7188 50H2.28125C1.61512 50 1.06839 49.7871 0.641031 49.3614C0.213677 48.9356 0 48.3909 0 47.7273C0 47.0636 0.213677 46.5189 0.641031 46.0932C1.06839 45.6674 1.61512 45.4545 2.28125 45.4545ZM11.477 38.6364C12.2374 32.0545 14.9346 26.6447 19.5686 22.4068C24.2025 18.1689 29.8464 15.9788 36.5 15.8364C43.1536 15.9788 48.7975 18.1689 53.4314 22.4068C58.0654 26.6447 60.7626 32.0545 61.523 38.6364H56.8898C56.2237 33.3333 54.0018 29.0008 50.224 25.6386C46.4463 22.2765 41.8716 20.5485 36.5 20.4545C31.1299 20.55 26.5553 22.278 22.776 25.6386C18.9967 28.9992 16.7748 33.3318 16.1102 38.6364H11.477ZM36.5 0C37.1661 0 37.7129 0.212879 38.1402 0.638637C38.5676 1.06439 38.7812 1.60909 38.7812 2.27273V9.09091C38.7812 9.75455 38.5676 10.2992 38.1402 10.725C37.7129 11.1508 37.1661 11.3636 36.5 11.3636C35.8339 11.3636 35.2871 11.1508 34.8598 10.725C34.4324 10.2992 34.2188 9.75455 34.2188 9.09091V2.27273C34.2188 1.60909 34.4324 1.06439 34.8598 0.638637C35.2871 0.212879 35.8339 0 36.5 0ZM65.5152 12.0023C65.9912 12.4765 66.2292 13.0091 66.2292 13.6C66.2292 14.1909 65.9912 14.7235 65.5152 15.1977L60.6676 20.0273C60.0501 20.6424 59.3254 20.8318 58.4935 20.5955C57.6616 20.3591 57.1271 19.8265 56.8898 18.9977C56.6526 18.1689 56.8427 17.447 57.4601 16.8318L62.3078 12.0023C62.7838 11.528 63.3184 11.2909 63.9115 11.2909C64.5046 11.2909 65.0392 11.528 65.5152 12.0023ZM7.48478 12.0023C7.9608 11.528 8.49537 11.2909 9.0885 11.2909C9.68163 11.2909 10.2162 11.528 10.6922 12.0023L15.5399 16.8318C16.1573 17.447 16.3474 18.1689 16.1102 18.9977C15.8729 19.8265 15.3384 20.3591 14.5065 20.5955C13.6746 20.8318 12.9499 20.6424 12.3324 20.0273L7.48478 15.1977C7.00876 14.7235 6.77075 14.1909 6.77075 13.6C6.77075 13.0091 7.00876 12.4765 7.48478 12.0023Z" fill="url(#paint0_linear_2904:9885)"/>
<path d="M62.7188 56.4545H10.2812C9.61512 56.4545 9.06839 56.6674 8.64103 57.0932C8.21368 57.5189 8 58.0636 8 58.7273C8 59.3909 8.21368 59.9356 8.64103 60.3614C9.06839 60.7871 9.61512 61 10.2812 61H62.7188C63.3849 61 63.9316 60.7871 64.359 60.3614C64.7863 59.9356 65 59.3909 65 58.7273C65 58.0636 64.7863 57.5189 64.359 57.0932C63.9316 56.6674 63.3849 56.4545 62.7188 56.4545Z" fill="url(#paint1_linear_2904:9885)"/>
<path d="M54.7188 67.4545H18.2812C17.6151 67.4545 17.0684 67.6674 16.641 68.0932C16.2137 68.5189 16 69.0636 16 69.7273C16 70.3909 16.2137 70.9356 16.641 71.3614C17.0684 71.7871 17.6151 72 18.2812 72H54.7188C55.3849 72 55.9316 71.7871 56.359 71.3614C56.7863 70.9356 57 70.3909 57 69.7273C57 69.0636 56.7863 68.5189 56.359 68.0932C55.9316 67.6674 55.3849 67.4545 54.7188 67.4545Z" fill="url(#paint2_linear_2904:9885)"/>
<defs>
<linearGradient id="paint0_linear_2904:9885" x1="6.34237" y1="72.0202" x2="67.724" y2="72.8106" gradientUnits="userSpaceOnUse">
<stop stop-color="#E8AD00"/>
<stop offset="1" stop-color="#F47920"/>
</linearGradient>
<linearGradient id="paint1_linear_2904:9885" x1="6.34237" y1="72.0202" x2="67.724" y2="72.8106" gradientUnits="userSpaceOnUse">
<stop stop-color="#E8AD00"/>
<stop offset="1" stop-color="#F47920"/>
</linearGradient>
<linearGradient id="paint2_linear_2904:9885" x1="6.34237" y1="72.0202" x2="67.724" y2="72.8106" gradientUnits="userSpaceOnUse">
<stop stop-color="#E8AD00"/>
<stop offset="1" stop-color="#F47920"/>
</linearGradient>
</defs>
</svg>
