<svg width="15" height="14" viewBox="0 0 15 14" fill="none" xmlns="http://www.w3.org/2000/svg">
<path d="M2.83273 0.331502L1.01 4.60111C0.964993 4.70228 0.950951 4.80633 0.967874 4.91326C0.984796 5.02019 1.03268 5.11308 1.11153 5.19192L9.76935 13.8494C9.8482 13.9283 9.9411 13.9761 10.048 13.9931C10.155 14.01 10.259 13.9959 10.3602 13.9509L14.63 12.1283C14.81 12.0494 14.9169 11.9173 14.9508 11.7319C14.9846 11.5465 14.934 11.3861 14.799 11.2507L12.4697 8.90474C12.3797 8.8259 12.2783 8.77531 12.1656 8.75299C12.0529 8.73067 11.946 8.74759 11.8448 8.80375L9.6338 9.90059L5.05997 5.32693L6.15684 3.11598C6.21301 3.01481 6.22993 2.90789 6.20761 2.7952C6.18529 2.68251 6.1347 2.58116 6.05585 2.49115L3.7098 0.161928C3.57478 0.026916 3.41438 -0.0236684 3.2286 0.0101745C3.04281 0.0440174 2.91068 0.150947 2.83219 0.330962L2.83273 0.331502Z" fill="white"/>
</svg>
