<svg width="15" height="13" viewBox="0 0 15 13" fill="none" xmlns="http://www.w3.org/2000/svg">
<path d="M15 1.96153C14.4643 2.1923 13.852 2.34615 13.2398 2.42308C13.852 2.03846 14.3878 1.42308 14.6173 0.730771C14.0051 1.11539 13.3929 1.34616 12.6276 1.5C12.0918 0.884618 11.25 0.5 10.4082 0.5C8.72449 0.5 7.34694 1.88461 7.34694 3.57692C7.34694 3.80769 7.34694 4.03846 7.42347 4.26922C4.89796 4.11538 2.60204 2.88461 1.07142 1.03846C0.841832 1.5 0.688771 2.03846 0.688771 2.57692C0.688771 3.65384 1.22449 4.57692 2.06633 5.11538C1.53061 5.11538 1.07142 4.96154 0.688771 4.73077C0.688771 6.19231 1.7602 7.49999 3.13775 7.73076C2.90816 7.80768 2.60204 7.80769 2.29592 7.80769C2.06633 7.80769 1.91326 7.80768 1.68367 7.73076C2.06633 8.96153 3.21429 9.88461 4.59184 9.88461C3.52041 10.7308 2.21939 11.1923 0.765306 11.1923C0.535715 11.1923 0.306123 11.1923 0 11.1154C1.37755 11.9615 2.98469 12.5 4.7449 12.5C10.4082 12.5 13.4694 7.80769 13.4694 3.73077V3.34615C14.0816 3.11538 14.6173 2.57692 15 1.96153Z" fill="#58595B"/>
</svg>
