<svg width="33" height="26" viewBox="0 0 33 26" fill="none" xmlns="http://www.w3.org/2000/svg">
<path d="M32.4086 3.29886C31.2511 3.79491 29.9283 4.12562 28.6055 4.29097C29.9283 3.46422 31.0858 2.14143 31.5818 0.653281C30.259 1.48003 28.9362 1.97608 27.2827 2.30678C26.1253 0.983981 24.3064 0.157227 22.4876 0.157227C18.8499 0.157227 15.8736 3.13352 15.8736 6.77122C15.8736 7.26727 15.8736 7.76331 16.0389 8.25936C10.5824 7.92866 5.62188 5.28307 2.31489 1.31467C1.81884 2.30677 1.48814 3.46422 1.48814 4.62167C1.48814 6.93656 2.64559 8.92077 4.46444 10.0782C3.30699 10.0782 2.31489 9.74752 1.48814 9.25147C1.48814 12.3931 3.80303 15.2041 6.77933 15.7001C6.28328 15.8654 5.62189 15.8655 4.96049 15.8655C4.46445 15.8655 4.13374 15.8654 3.63769 15.7001C4.46444 18.3457 6.94469 20.3299 9.92099 20.3299C7.60609 22.1487 4.79515 23.1408 1.6535 23.1408C1.15745 23.1408 0.661399 23.1409 0 22.9755C2.9763 24.7944 6.44864 25.9518 10.2517 25.9518C22.4876 25.9518 29.1016 15.8655 29.1016 7.10191V6.27516C30.4244 5.77912 31.5818 4.62166 32.4086 3.29886Z" fill="#F47920"/>
</svg>
