<svg width="11" height="15" viewBox="0 0 11 15" fill="none" xmlns="http://www.w3.org/2000/svg">
<path d="M2 13.5H9C9.33333 13.5 9.5 13.6667 9.5 14C9.5 14.3334 9.33333 14.5 9 14.5H2C1.66667 14.5 1.5 14.3334 1.5 14C1.5 13.6667 1.66667 13.5 2 13.5ZM5.5 14.5C1.83333 11.1667 0 8.33336 0 6.00003C0.0416667 4.43736 0.578167 3.14053 1.6095 2.10953C2.64083 1.07853 3.93767 0.542031 5.5 0.500031C7.06267 0.541697 8.3595 1.0782 9.3905 2.10953C10.4215 3.14086 10.958 4.4377 11 6.00003C11 8.33336 9.16667 11.1667 5.5 14.5ZM5.5 7.50003C5.927 7.4897 6.28117 7.34386 6.5625 7.06253C6.84383 6.7812 6.9845 6.42703 6.9845 6.00003C6.9845 5.57303 6.84383 5.21886 6.5625 4.93753C6.28117 4.6562 5.927 4.51553 5.5 4.51553C5.073 4.51553 4.71883 4.6562 4.4375 4.93753C4.15617 5.21886 4.0155 5.57303 4.0155 6.00003C4.0155 6.42703 4.15617 6.7812 4.4375 7.06253C4.71883 7.34386 5.073 7.4897 5.5 7.50003Z" fill="#F47920"/>
</svg>
