<svg width="11" height="15" viewBox="0 0 11 15" fill="none" xmlns="http://www.w3.org/2000/svg">
<path d="M2 13.5H9C9.33333 13.5 9.5 13.6667 9.5 14C9.5 14.3333 9.33333 14.5 9 14.5H2C1.66667 14.5 1.5 14.3333 1.5 14C1.5 13.6667 1.66667 13.5 2 13.5ZM5.5 14.5C1.83333 11.1667 0 8.33333 0 6C0.0416667 4.43733 0.578167 3.1405 1.6095 2.1095C2.64083 1.0785 3.93767 0.542 5.5 0.5C7.06267 0.541667 8.3595 1.07817 9.3905 2.1095C10.4215 3.14083 10.958 4.43767 11 6C11 8.33333 9.16667 11.1667 5.5 14.5ZM5.5 7.5C5.927 7.48967 6.28117 7.34383 6.5625 7.0625C6.84383 6.78117 6.9845 6.427 6.9845 6C6.9845 5.573 6.84383 5.21883 6.5625 4.9375C6.28117 4.65617 5.927 4.5155 5.5 4.5155C5.073 4.5155 4.71883 4.65617 4.4375 4.9375C4.15617 5.21883 4.0155 5.573 4.0155 6C4.0155 6.427 4.15617 6.78117 4.4375 7.0625C4.71883 7.34383 5.073 7.48967 5.5 7.5Z" fill="#58595B"/>
</svg>
