<svg width="26" height="30" viewBox="0 0 26 30" fill="none" xmlns="http://www.w3.org/2000/svg">
<path d="M5.53764 27.8563H21.4467C22.2043 27.8563 22.5831 28.2134 22.5831 28.9277C22.5831 29.642 22.2043 29.9991 21.4467 29.9991H5.53764C4.78007 29.9991 4.40128 29.642 4.40128 28.9277C4.40128 28.2134 4.78007 27.8563 5.53764 27.8563ZM23.7195 11.7849C23.6482 9.06129 22.6479 6.79022 20.7183 4.97165C18.7888 3.15307 16.3801 2.20986 13.4922 2.142C10.6036 2.20915 8.19484 3.15236 6.26605 4.97165C4.33726 6.79093 3.33688 9.062 3.26491 11.7849C3.26491 13.7713 4.11113 16.0424 5.80355 18.5981C7.49598 21.1538 10.0589 23.9831 13.4922 27.0859C16.9248 23.9831 19.4876 21.1538 21.1808 18.5981C22.874 16.0424 23.7202 13.7713 23.7195 11.7849ZM13.4922 29.9991C5.15885 22.8563 0.992188 16.7849 0.992188 11.7849C1.08688 8.43629 2.3062 5.65736 4.65014 3.44807C6.99408 1.23879 9.94143 0.0891455 13.4922 -0.000854492C17.0437 0.0884312 19.9911 1.23807 22.3342 3.44807C24.6774 5.65807 25.8967 8.437 25.9922 11.7849C25.9922 16.7849 21.8255 22.8563 13.4922 29.9991Z" fill="#F47920"/>
</svg>
