<svg width="15" height="14" viewBox="0 0 15 14" fill="none" xmlns="http://www.w3.org/2000/svg">
<path d="M3.8776 3.76923C3.9021 4.83503 4.30013 5.72403 5.07169 6.43623C5.84324 7.14844 6.80633 7.51585 7.96094 7.53846C9.11555 7.51585 10.0786 7.14844 10.8502 6.43623C11.6217 5.72403 12.0198 4.83503 12.0443 3.76923C12.0198 2.70344 11.6217 1.81444 10.8502 1.10223C10.0786 0.390026 9.11555 0.0226154 7.96094 0C6.80633 0.0226154 5.84324 0.390026 5.07169 1.10223C4.30013 1.81444 3.9021 2.70344 3.8776 3.76923ZM13.7943 14H1.54427C1.37394 14 1.23413 13.9496 1.12485 13.8487C1.01558 13.7478 0.960937 13.6188 0.960938 13.4615V11.8462C0.985437 11.0833 1.27108 10.4496 1.81785 9.94485C2.36463 9.44013 3.05122 9.17646 3.8776 9.15385H12.0443C12.8707 9.17646 13.5572 9.44013 14.104 9.94485C14.6508 10.4496 14.9364 11.0833 14.9609 11.8462V13.4615C14.9609 13.6188 14.9063 13.7478 14.797 13.8487C14.6877 13.9496 14.5479 14 14.3776 14H13.7943Z" fill="#E8AD00"/>
</svg>
