<svg width="12" height="13" viewBox="0 0 12 13" fill="none" xmlns="http://www.w3.org/2000/svg">
<path d="M5.078 0.827881C5.17167 0.744548 5.281 0.702881 5.406 0.702881C5.531 0.702881 5.64033 0.744548 5.734 0.827881L10.906 6.15588C10.9997 6.24955 11.0465 6.36421 11.0465 6.49988C11.0465 6.63555 10.9997 6.75021 10.906 6.84388L5.734 12.1719C5.64033 12.2552 5.531 12.2969 5.406 12.2969C5.281 12.2969 5.17167 12.25 5.078 12.1564C4.98433 12.0627 4.9375 11.9534 4.9375 11.8284C4.9375 11.7034 4.98433 11.594 5.078 11.5004L9.953 6.50038L5.078 1.50038C4.98433 1.40671 4.9375 1.29738 4.9375 1.17238C4.9375 1.04738 4.98433 0.932714 5.078 0.828381V0.827881ZM1.078 0.827881C1.17167 0.744548 1.281 0.702881 1.406 0.702881C1.531 0.702881 1.64033 0.744548 1.734 0.827881L6.906 6.15588C6.99967 6.24955 7.0465 6.36421 7.0465 6.49988C7.0465 6.63555 6.99967 6.75021 6.906 6.84388L1.734 12.1719C1.64033 12.2552 1.531 12.2969 1.406 12.2969C1.281 12.2969 1.17167 12.25 1.078 12.1564C0.984333 12.0627 0.9375 11.9534 0.9375 11.8284C0.9375 11.7034 0.984333 11.594 1.078 11.5004L5.953 6.50038L1.078 1.50038C0.984333 1.40671 0.9375 1.29738 0.9375 1.17238C0.9375 1.04738 0.984333 0.932714 1.078 0.828381V0.827881Z" fill="#58595B"/>
</svg>
