<svg width="30" height="22" viewBox="0 0 30 22" fill="none" xmlns="http://www.w3.org/2000/svg">
<path d="M29.9166 8.59601C29.9166 7.95466 29.8097 7.20642 29.8097 6.35127C29.7028 5.49613 29.5959 4.64099 29.489 3.89274C29.2752 3.03759 28.9545 2.39624 28.3132 1.86178C27.7787 1.32731 27.0305 1.00663 26.2822 0.899733C23.8237 0.579054 20.1893 0.472168 15.2723 0.472168C10.3552 0.472168 6.61392 0.579054 4.26228 0.899733C3.51403 1.00663 2.76579 1.32731 2.23132 1.86178C1.69686 2.39624 1.26928 3.03759 1.05549 3.89274C0.841709 4.64099 0.734829 5.38924 0.734829 6.35127C0.627936 7.20642 0.62793 7.95466 0.62793 8.59601C0.62793 9.23737 0.62793 9.98562 0.62793 11.0546C0.62793 12.1235 0.62793 12.9786 0.62793 13.5131C0.62793 14.1544 0.734829 14.9027 0.734829 15.7578C0.841722 16.613 0.948602 17.4681 1.05549 18.2164C1.26928 19.0715 1.58997 19.7129 2.23132 20.2473C2.76579 20.7818 3.51403 21.1025 4.26228 21.2094C6.72081 21.53 10.3552 21.6369 15.2723 21.6369C20.1893 21.6369 23.9306 21.53 26.2822 21.2094C27.0305 21.1025 27.7787 20.7818 28.3132 20.2473C28.8476 19.7129 29.2752 19.0715 29.489 18.2164C29.7028 17.4681 29.8097 16.7199 29.8097 15.7578C29.9166 14.9027 29.9166 14.1544 29.9166 13.5131C29.9166 12.8717 29.9166 12.1235 29.9166 11.0546C29.9166 9.98562 29.9166 9.13048 29.9166 8.59601ZM20.9376 11.9097L12.493 17.1474C12.3861 17.2543 12.1724 17.3612 11.9586 17.3612C11.7448 17.3612 11.6379 17.3612 11.4241 17.2543C11.1034 17.0406 10.8896 16.7199 10.8896 16.2923V5.70991C10.8896 5.28234 11.1034 4.96167 11.4241 4.74788C11.7448 4.5341 12.1724 4.5341 12.493 4.74788L20.9376 9.98562C21.2582 10.1994 21.472 10.5201 21.472 10.8408C21.472 11.1614 21.2582 11.6959 20.9376 11.9097Z" fill="#F47920"/>
</svg>
